<svg width="19" height="20" viewBox="0 0 19 20" fill="none" xmlns="http://www.w3.org/2000/svg">
<path d="M17.4755 12.586C16.3122 12.586 15.17 12.4045 14.0877 12.0477C13.5573 11.8673 12.9053 12.0328 12.5816 12.3644L10.4453 13.9732C7.96768 12.6539 6.44155 11.1321 5.13708 8.67922L6.70235 6.6037C7.10902 6.19858 7.25489 5.6068 7.08013 5.05154C6.72091 3.9662 6.53843 2.82741 6.53843 1.66655C6.53848 0.827941 5.85453 0.145691 5.01388 0.145691H1.5246C0.683951 0.145691 0 0.827941 0 1.6665C0 11.2786 7.83938 19.0984 17.4755 19.0984C18.3161 19.0984 19.0001 18.4162 19.0001 17.5776V14.1068C19 13.2683 18.3161 12.586 17.4755 12.586Z" fill="#142275"/>
</svg>
