<svg width="22" height="22" viewBox="0 0 22 22" fill="none" xmlns="http://www.w3.org/2000/svg">
<g clip-path="url(#clip0)">
<path fill-rule="evenodd" clip-rule="evenodd" d="M10.5617 0.649414C8.47282 0.649414 6.43083 1.2637 4.69395 2.41458C2.95709 3.56547 1.60336 5.20127 0.803968 7.11512C0.0045762 9.02898 -0.204581 11.1349 0.202945 13.1667C0.610472 15.1984 1.61638 17.0646 3.09347 18.5295C4.57055 19.9943 6.45247 20.9918 8.50125 21.396C10.55 21.8001 12.6736 21.5926 14.6036 20.7999C16.5335 20.0071 18.1829 18.6648 19.3436 16.9424C20.504 15.2199 21.1235 13.1949 21.1235 11.1233C21.1204 8.34638 20.0067 5.68405 18.0266 3.72047C16.0466 1.75688 13.3619 0.652418 10.5617 0.649414ZM15.9605 16.2729C15.9012 16.3665 15.8188 16.4437 15.7213 16.4971C15.6237 16.5505 15.514 16.5785 15.4026 16.5785H5.72095C5.60956 16.5784 5.50001 16.5504 5.40247 16.4971C5.30495 16.4438 5.22261 16.3668 5.16313 16.2733C5.10365 16.18 5.06898 16.0731 5.06233 15.9629C5.05568 15.8527 5.07726 15.7426 5.12508 15.6428C5.61241 14.6217 6.38207 13.7589 7.34452 13.1548C8.30698 12.5506 9.42265 12.2298 10.5617 12.2298C11.7008 12.2298 12.8165 12.5506 13.779 13.1548C14.7414 13.7589 15.5111 14.6217 15.9984 15.6428C16.0463 15.7424 16.068 15.8525 16.0614 15.9628C16.0548 16.0729 16.02 16.1797 15.9605 16.2729ZM12.371 4.99047C11.8354 4.63561 11.2058 4.4462 10.5617 4.4462C9.69805 4.4462 8.86974 4.78645 8.25903 5.39209C7.64831 5.99773 7.30521 6.81916 7.30521 7.67566C7.30521 8.31438 7.49619 8.93876 7.85404 9.46984C8.21187 10.0009 8.72047 10.4148 9.31552 10.6593C9.91058 10.9037 10.5654 10.9677 11.1971 10.8431C11.8288 10.7184 12.409 10.4109 12.8645 9.95922C13.3199 9.50757 13.6301 8.93215 13.7557 8.30569C13.8814 7.67923 13.8169 7.0299 13.5704 6.43979C13.3239 5.84969 12.9065 5.34532 12.371 4.99047Z" fill="#142275"/>
</g>
<defs>
<clipPath id="clip0">
<rect width="21.0615" height="20.9478" fill="white" transform="translate(0 0.649414)"/>
</clipPath>
</defs>
</svg>
