<svg width="180" height="180" viewBox="0 0 180 180" fill="none" xmlns="http://www.w3.org/2000/svg">
<path d="M96.8043 130.394C102.937 126.645 103.519 124.608 103.519 124.608" stroke="#FF5653" stroke-width="2" stroke-miterlimit="10" stroke-linecap="round" stroke-linejoin="round"/>
<path d="M65.3125 60.5176C65.3125 60.5176 69.2577 66.7658 69.1762 71.7991" stroke="#FF5653" stroke-width="2" stroke-miterlimit="10" stroke-linecap="round" stroke-linejoin="round"/>
<path d="M60.867 76.8324C56.3631 74.2637 53.4304 66.5112 53.4304 66.5112" stroke="#FF5653" stroke-width="2" stroke-miterlimit="10" stroke-linecap="round" stroke-linejoin="round"/>
<path d="M50.8235 70.4448C50.8235 70.4448 55.4204 56.4904 68.4198 60.598" stroke="#FF5653" stroke-width="2" stroke-miterlimit="10" stroke-linecap="round" stroke-linejoin="round"/>
<path d="M102.658 71.7986C102.565 66.7769 106.499 60.5171 106.499 60.5171" stroke="#FF5653" stroke-width="2" stroke-miterlimit="10" stroke-linecap="round" stroke-linejoin="round"/>
<path d="M118.381 66.5112C118.381 66.5112 115.436 74.229 110.991 76.8208" stroke="#FF5653" stroke-width="2" stroke-miterlimit="10" stroke-linecap="round" stroke-linejoin="round"/>
<path d="M120.986 70.4448C120.986 70.4448 116.389 56.4904 103.39 60.598" stroke="#FF5653" stroke-width="2" stroke-miterlimit="10" stroke-linecap="round" stroke-linejoin="round"/>
<path d="M42.8167 56.4447C42.8167 56.4447 46.5757 41.472 68.4198 45.5565" stroke="#FF5653" stroke-width="2" stroke-miterlimit="10" stroke-linecap="round" stroke-linejoin="round"/>
<path d="M92.0095 68.4324C92.0095 68.4324 88.4483 40.9054 115.96 53.2167C143.472 65.5281 128.447 88.1606 120.417 87.1771" stroke="#FF5653" stroke-width="2" stroke-miterlimit="10" stroke-linecap="round" stroke-linejoin="round"/>
<path d="M122.78 29.3457C122.78 29.3457 125.084 24 136.536 24C147.987 24 155.831 33.8815 155.831 42.1778C155.831 50.4741 157.763 55.7966 153.783 55.7966C149.803 55.7966 148.942 48.0326 148.942 44.5961C148.942 41.1595 148.464 34.1476 141.028 31.9839C133.591 29.8201 126.76 34.1592 126.76 34.1592" stroke="#FF5653" stroke-width="2" stroke-miterlimit="10" stroke-linecap="round" stroke-linejoin="round"/>
<path d="M140.981 54.5007C140.981 54.5007 145.543 48.9467 148.825 49.1665" stroke="#FF5653" stroke-width="2" stroke-miterlimit="10" stroke-linecap="round" stroke-linejoin="round"/>
<path d="M49.52 29.3457C49.52 29.3457 47.2157 24 35.7642 24C24.3126 24 16.4687 33.8815 16.4687 42.1778C16.4687 50.4741 14.5369 55.7966 18.517 55.7966C22.4971 55.7966 23.3583 48.0326 23.3583 44.5961C23.3583 41.1595 23.8355 34.1476 31.272 31.9839C38.7085 29.8201 45.5399 34.1592 45.5399 34.1592" stroke="#FF5653" stroke-width="2" stroke-miterlimit="10" stroke-linecap="round" stroke-linejoin="round"/>
<path d="M31.3302 54.5007C31.3302 54.5007 26.7682 48.9467 23.4863 49.1665" stroke="#FF5653" stroke-width="2" stroke-miterlimit="10" stroke-linecap="round" stroke-linejoin="round"/>
<path d="M79.4175 111.36C80.3369 110.445 80.6744 108.583 82.1174 108.583C84.0028 108.583 84.0028 111.834 85.8997 111.834C87.7967 111.834 87.7967 108.583 89.682 108.583C91.579 108.583 91.579 111.834 93.4876 111.834C95.3961 111.834 95.3845 108.583 97.2931 108.583" stroke="#FF5653" stroke-width="2" stroke-miterlimit="10" stroke-linecap="round" stroke-linejoin="round"/>
<path d="M75.425 108.884C75.425 108.884 75.425 108.872 75.4134 108.872C75.1808 108.699 74.8901 108.594 74.5529 108.594" stroke="#FF5653" stroke-width="2" stroke-miterlimit="10" stroke-linecap="round" stroke-linejoin="round"/>
<path d="M27.1522 96.0171C27.1522 96.0171 40.4309 97.9494 47.53 91.5392C54.629 85.1289 60.4013 68.7446 85.9346 68.7446" stroke="#FF5653" stroke-width="2" stroke-miterlimit="10" stroke-linecap="round" stroke-linejoin="round"/>
<path d="M144.717 96.0171C144.717 96.0171 131.438 97.9494 124.339 91.5392C117.24 85.1289 111.468 68.7446 85.9346 68.7446" stroke="#FF5653" stroke-width="2" stroke-miterlimit="10" stroke-linecap="round" stroke-linejoin="round"/>
<path d="M86.0859 103.631C79.8597 103.631 76.415 105.609 74.262 108.548" stroke="#FF5653" stroke-width="2" stroke-miterlimit="10" stroke-linecap="round" stroke-linejoin="round"/>
<path d="M26.9893 96.0171C26.9893 96.0171 29.0491 132.616 53.9889 132.616C55.5134 132.616 56.8867 132.511 58.1203 132.303" stroke="#FF5653" stroke-width="2" stroke-miterlimit="10" stroke-linecap="round" stroke-linejoin="round"/>
<path d="M85.7716 103.631C102.833 103.631 99.0852 118.569 104.834 126.981" stroke="#FF5653" stroke-width="2" stroke-miterlimit="10" stroke-linecap="round" stroke-linejoin="round"/>
<path d="M112.445 132.037C113.993 132.407 115.786 132.616 117.88 132.616C142.808 132.616 144.88 96.0171 144.88 96.0171" stroke="#FF5653" stroke-width="2" stroke-miterlimit="10" stroke-linecap="round" stroke-linejoin="round"/>
<path d="M79.9644 79.4006C83.0601 74.7376 88.4833 74.7376 91.5789 79.4006L94.1509 83.2768C95.3961 85.1513 94.4069 88.1366 92.5332 88.1366H85.76H78.9869C77.1132 88.1366 76.124 85.1513 77.3692 83.2768L79.9644 79.4006Z" stroke="#FF5653" stroke-width="2" stroke-miterlimit="10" stroke-linecap="round" stroke-linejoin="round"/>
<path d="M27.2685 96.1325C27.2685 96.1325 24.4289 63.8962 37.1141 45.5333C49.7993 27.1704 51.3704 24 85.76 24" stroke="#FF5653" stroke-width="2" stroke-miterlimit="10" stroke-linecap="round" stroke-linejoin="round"/>
<path d="M144.903 96.1325C144.903 96.1325 147.743 63.8962 135.058 45.5333C122.372 27.1704 120.801 24 86.4117 24" stroke="#FF5653" stroke-width="2" stroke-miterlimit="10" stroke-linecap="round" stroke-linejoin="round"/>
<path d="M161.429 156H68.5362C67.675 156 66.9651 155.295 66.9651 154.438V152.055C66.9651 151.198 67.675 150.493 68.5362 150.493H161.429C162.29 150.493 163 151.198 163 152.055V154.438C163 155.295 162.29 156 161.429 156Z" stroke="#FF5653" stroke-width="2" stroke-miterlimit="10" stroke-linecap="round" stroke-linejoin="round"/>
<path d="M92.638 136.666C95.2914 138.123 96.3155 139.778 96.3155 139.778V150.481H69.6766V139.778C69.6766 139.778 69.8047 139.558 70.1189 139.223" stroke="#FF5653" stroke-width="2" stroke-miterlimit="10" stroke-linecap="round" stroke-linejoin="round"/>
<path d="M73.7499 136.491C73.7616 136.491 73.7616 136.48 73.7616 136.48C74.8904 135.889 76.2753 135.357 77.9628 134.999" stroke="#FF5653" stroke-width="2" stroke-miterlimit="10" stroke-linecap="round" stroke-linejoin="round"/>
<path d="M83.0019 138.308V145.436" stroke="#FF5653" stroke-width="2" stroke-miterlimit="10" stroke-linecap="round" stroke-linejoin="round"/>
<path d="M90.3803 138.041V145.435" stroke="#FF5653" stroke-width="2" stroke-miterlimit="10" stroke-linecap="round" stroke-linejoin="round"/>
<path d="M75.612 135.982V145.436" stroke="#FF5653" stroke-width="2" stroke-miterlimit="10" stroke-linecap="round" stroke-linejoin="round"/>
<path d="M97.0953 127.975C97.0953 133.934 92.2307 138.783 86.2139 138.783C80.6511 138.783 76.0542 134.617 75.4374 129.26C75.4374 129.271 75.4257 129.271 75.4024 129.26C75.5305 129.85 75.6119 130.486 75.6119 131.123C75.6119 135.948 71.6784 139.859 66.8254 139.859C61.9724 139.859 58.0389 135.948 58.0389 131.123C58.0389 128.033 59.6449 125.337 62.0656 123.775C61.3324 122.34 60.9483 120.744 60.9483 119.066C60.9483 113.107 65.8129 108.259 71.818 108.259C77.3809 108.259 81.9894 112.424 82.6179 117.782C83.7467 117.388 84.9687 117.157 86.2256 117.157C92.219 117.157 97.0953 122.005 97.0953 127.975Z" stroke="#FF5653" stroke-width="2" stroke-miterlimit="10" stroke-linecap="round" stroke-linejoin="round"/>
<path d="M107.15 137.024C110.088 137.024 112.469 134.657 112.469 131.736C112.469 128.816 110.088 126.448 107.15 126.448C104.213 126.448 101.832 128.816 101.832 131.736C101.832 134.657 104.213 137.024 107.15 137.024Z" stroke="#FF5653" stroke-width="2" stroke-miterlimit="10" stroke-linecap="round" stroke-linejoin="round"/>
<path d="M116.17 120.929C116.915 120.929 117.52 120.328 117.52 119.587C117.52 118.846 116.915 118.245 116.17 118.245C115.424 118.245 114.82 118.846 114.82 119.587C114.82 120.328 115.424 120.929 116.17 120.929Z" fill="white" stroke="#FF5653" stroke-width="2" stroke-miterlimit="10" stroke-linecap="round" stroke-linejoin="round"/>
</svg>
