<svg width="180" height="180" viewBox="0 0 180 180" fill="none" xmlns="http://www.w3.org/2000/svg">
<path d="M89.0223 92.5459C90.8321 93.8983 91.439 109.705 91.3848 120.069" stroke="#FF5653" stroke-width="2" stroke-miterlimit="10" stroke-linecap="round" stroke-linejoin="round"/>
<path d="M98.5589 49.4429C100.369 54.1599 104.021 79.3465 98.5589 91.5179C98.5589 91.5179 96.294 108.06 97.0417 120.588" stroke="#FF5653" stroke-width="2" stroke-miterlimit="10" stroke-linecap="round" stroke-linejoin="round"/>
<path d="M91.4498 40.8091H96.7708C96.7708 40.8091 97.2693 45.1475 94.1049 45.1259C90.7454 45.1042 91.4498 40.8091 91.4498 40.8091Z" stroke="#FF5653" stroke-width="2" stroke-miterlimit="10" stroke-linecap="round" stroke-linejoin="round"/>
<path d="M94.1157 45.126V48.4907" stroke="#FF5653" stroke-width="2" stroke-miterlimit="10" stroke-linecap="round" stroke-linejoin="round"/>
<path d="M84.7415 35.2592L86.6489 47.2249C87.8085 49.2914 91.0921 49.7133 93.9965 48.3177C94.0398 48.3285 94.0832 48.3609 94.1157 48.3718C98.0929 49.9838 99.8919 48.6747 101.149 46.7381C102.005 39.2297 105.397 28.573 104.671 24.57C107.109 18.6412 104.021 10.884 101.474 7C101.474 7 97.4102 15.904 96.9117 20.4588C93.9965 20.091 93.6497 20.4696 90.9621 20.3614C90.767 16.0988 89.2606 12.4528 87.2016 7.24884C84.048 15.006 81.0027 19.8529 83.4411 24.451C83.4411 25.3057 82.3465 33.9068 78.2176 45.1693C74.0995 56.4427 72.8749 55.231 66.1992 56.0749C59.5235 56.9296 36.4621 57.3623 32.7124 58.1305C26.2643 59.4828 23.1216 63.4642 21.5719 68.3977C20.8566 70.6913 20.4773 73.1688 20.2714 75.7005C20.2172 79.0003 20.033 81.9214 19.7512 84.5396C18.3532 97.3492 14.5061 102.402 11.3633 104.36C10.7131 104.76 10.3446 105.496 10.4205 106.253C10.984 112.074 8.72986 131.407 8.90325 135.14C9.08748 139.23 11.1682 138.862 11.1682 138.862C11.2657 139.121 18.9168 140.582 19.4695 138.029C20.0113 135.486 16.2725 131.862 15.8173 130.856C15.3622 129.86 16.2725 117.765 16.2725 117.408C16.2725 117.051 17.0636 107.562 20.5857 104.782C25.9392 99.7943 29.5913 95.7697 32.3115 90.3061C32.7558 89.4081 33.1784 88.4669 33.5794 87.4932C34.7823 84.5396 37.7084 82.603 40.8945 82.6895C43.8964 82.7545 47.5593 83.4469 51.4173 84.5396C57.096 86.1408 63.1756 88.6075 68.0632 91.1933C70.5124 92.4807 73.0916 93.5085 75.7901 94.1144C76.2019 94.2117 76.6028 94.2983 76.993 94.3632" stroke="#FF5653" stroke-width="2" stroke-miterlimit="10" stroke-linecap="round" stroke-linejoin="round"/>
<path d="M90.7237 90.6094C89.3257 91.9509 88.0794 93.7685 85.0667 94.5258" stroke="#FF5653" stroke-width="2" stroke-miterlimit="10" stroke-linecap="round" stroke-linejoin="round"/>
<path d="M32.3007 90.3061C32.8859 92.7188 32.6366 102.326 29.4072 106.848C28.8436 107.638 28.5619 108.579 28.7353 109.531C30.0357 116.683 33.6987 136.676 33.3627 137.682C36.5488 139.868 41.5556 139.132 42.9211 137.682C44.2865 136.233 42.0974 134.134 37.3725 130.866C35.3676 122.049 34.1863 109.964 36.2779 108.147C38.3695 106.329 48.849 94.8177 51.3957 84.5288" stroke="#FF5653" stroke-width="2" stroke-miterlimit="10" stroke-linecap="round" stroke-linejoin="round"/>
<path d="M21.561 68.4082C18.8734 72.4329 14.9829 90.1219 2 91.5824C4.30831 93.4 13.4115 99.5668 19.7404 84.5393" stroke="#FF5653" stroke-width="2" stroke-miterlimit="10" stroke-linecap="round" stroke-linejoin="round"/>
<path d="M76.3427 88.3374C76.4294 89.1272 76.6787 91.3451 76.993 94.3744C77.4915 99.3187 78.1634 106.383 78.6402 112.929" stroke="#FF5653" stroke-width="2" stroke-miterlimit="10" stroke-linecap="round" stroke-linejoin="round"/>
<path d="M84.6332 117.852C84.2864 110.008 84.6657 101.028 85.0667 94.5368C85.4026 89.2679 85.7494 85.6436 85.7494 85.6436" stroke="#FF5653" stroke-width="2" stroke-miterlimit="10" stroke-linecap="round" stroke-linejoin="round"/>
<path d="M140.239 152.537C140.239 154.852 134.885 172 131.005 172H126.497L128.578 168.538C128.578 168.538 131.395 163.074 130.268 159.342C129.152 155.609 123.875 149.918 123.679 147.105" stroke="#FF5653" stroke-width="2" stroke-miterlimit="10" stroke-linecap="round" stroke-linejoin="round"/>
<path d="M77.2205 141.858C76.8196 144.974 76.1585 163.139 75.6383 164.816C75.1181 166.493 71.7044 171.621 71.7044 171.621H77.8274C77.8274 171.621 84.644 163.539 85.576 155.122" stroke="#FF5653" stroke-width="2" stroke-miterlimit="10" stroke-linecap="round" stroke-linejoin="round"/>
<path d="M133.899 145.613C132.501 145.84 128.697 146.413 123.961 147.073C115.693 148.22 103.577 149.454 97.3994 149.637" stroke="#FF5653" stroke-width="2" stroke-miterlimit="10" stroke-linecap="round" stroke-linejoin="round"/>
<path d="M95.4594 144.726C100.152 159.115 96.6082 172 96.6082 172H90.1492L92.1108 169.36C92.1108 169.36 90.9187 159.147 88.2853 157.113C85.641 155.079 80.2007 148.913 77.5998 142.811C77.4806 142.519 77.3397 142.226 77.1989 141.945C74.5871 136.308 70.5665 132.273 64.2268 130.499C57.562 128.649 56.9768 124.7 57.2152 123.185C57.4536 121.692 60.488 119.139 60.488 119.139C59.9895 112.074 66.8169 109.564 66.8169 109.564C67.1962 107.725 68.0306 106.221 68.7134 105.236C69.2444 104.457 70.3173 104.338 71.0434 104.933C73.9586 107.346 76.1585 110.267 78.6294 112.918C80.3741 114.8 82.2706 116.521 84.6331 117.851C86.0853 118.652 87.7217 119.312 89.6074 119.745C90.1709 119.864 90.767 119.983 91.3738 120.08C93.1186 120.372 95.026 120.534 97.0308 120.599C106.242 120.946 117.589 119.333 125.229 118.187C130.355 117.419 135.568 117.44 140.683 118.295C143.988 118.847 147.716 119.095 149.873 118.046C154.424 115.85 162.736 109.759 162.736 93.6492C162.736 77.5398 175.958 73.8181 177.778 78.3729C179.599 82.9276 169.607 83.025 169.607 92.5673C169.607 102.121 171.493 110.018 160.58 120.037C156.678 123.607 149.569 141.859 153.081 152.353C154.479 156.562 150.935 168.051 148.616 170.929H143.013L145.256 167.164C145.256 167.164 147.218 161.095 145.906 158.552C145.31 157.395 142.883 155.188 140.228 152.548C137.107 149.443 133.682 145.71 132.674 142.356" stroke="#FF5653" stroke-width="2" stroke-miterlimit="10" stroke-linecap="round" stroke-linejoin="round"/>
</svg>
