<svg width="180" height="180" viewBox="0 0 180 180" fill="none" xmlns="http://www.w3.org/2000/svg">
<path d="M68.5694 81.8179C68.5694 81.8179 66.205 93.3961 67.5576 100.912C68.9103 108.427 58.2169 145.439 53.5838 149.662C53.5838 149.662 43.1779 152.089 42.7093 157.873C42.7093 157.873 49.9838 159.006 54.9045 157.327C59.8251 155.649 64.7458 141.216 64.7458 141.216C64.7458 141.216 74.5126 113.944 76.909 105.028" stroke="#FF5653" stroke-width="2" stroke-miterlimit="10" stroke-linecap="round" stroke-linejoin="round"/>
<path d="M74.8321 98.0464C74.8321 98.0464 81.4675 118.883 93.0876 120.593" stroke="#FF5653" stroke-width="2" stroke-miterlimit="10" stroke-linecap="round" stroke-linejoin="round"/>
<path d="M85.387 103.199C85.387 103.199 92.587 109.432 93.3751 115.654C94.1633 121.876 92.1609 161.828 92.1609 161.828C92.1609 161.828 89.1361 167.195 89.4663 169.269C89.7965 171.343 97.5076 171.631 99.3609 169.91C101.214 168.189 99.3609 159.893 99.3609 159.893C99.3609 159.893 98.7964 118.252 103.994 107.561" stroke="#FF5653" stroke-width="2" stroke-miterlimit="10" stroke-linecap="round" stroke-linejoin="round"/>
<path d="M82.8841 114.585C82.8841 114.585 74.896 122.892 88.0923 135.85C88.0923 135.85 93.5136 140.65 86.1006 140.928C78.6877 141.206 70.199 141.216 68.7718 145.364C67.3445 149.513 80.0403 147.802 80.0403 147.802C80.0403 147.802 89.6154 146.391 92.8532 146.519" stroke="#FF5653" stroke-width="2" stroke-miterlimit="10" stroke-linecap="round" stroke-linejoin="round"/>
<path d="M119.906 121.096C119.906 121.096 104.857 113.655 105.996 127.329C107.136 141.002 115.912 151.458 115.912 151.458C115.912 151.458 102.269 153.553 102.077 158.653C101.885 163.752 109.799 161.39 109.799 161.39C109.799 161.39 124.401 155.809 124.561 153.233C124.721 150.656 127.106 140.511 127.106 140.511C127.319 139.698 127.511 138.789 127.671 137.859C128.363 133.893 128.512 129.862 128.225 125.853C127.618 117.365 125.977 99.7676 122.25 88.1787C117.19 72.4311 98.1574 59.6982 98.1574 59.6982" stroke="#FF5653" stroke-width="2" stroke-miterlimit="10" stroke-linecap="round" stroke-linejoin="round"/>
<path d="M69.1339 55.0051C69.8795 55.2296 70.1031 56.1811 69.528 56.705C68.5907 57.5709 67.1955 58.5117 65.8322 58.1055C64.4369 57.6885 63.915 56.1277 63.7233 54.8982C63.6061 54.1606 64.2878 53.5512 65.0014 53.765L69.1339 55.0051Z" stroke="#FF5653" stroke-width="2" stroke-miterlimit="10" stroke-linecap="round" stroke-linejoin="round"/>
<path d="M66.1623 62.0292C66.1623 62.0292 67.5043 70.336 77.7717 66.4338C88.0391 62.5317 91.9799 48.2487 91.9799 48.2487L89.0829 42.3045C88.7527 41.6203 89.0402 40.7971 89.7219 40.4764C91.6603 39.5784 95.2284 37.8464 95.6118 37.1836C96.2828 36.029 98.4023 16.9778 94.6852 16.4968C90.968 16.0157 81.1693 30.6087 81.1693 30.6087C75.9504 28.246 68.9741 29.4862 68.9741 29.4862C68.9741 29.4862 59.857 11.472 58.1742 11.6324C56.4914 11.7928 53.6796 28.5454 56.0334 32.8645C58.3872 37.1836 60.8795 37.5578 60.8795 37.5578C60.8795 37.5578 57.9612 48.7832 61.1777 52.4288C61.1777 52.4288 57.2156 61.6229 64.2452 61.0242C64.2452 61.0242 68.6546 64.7554 73.8202 59.5917" stroke="#FF5653" stroke-width="2" stroke-miterlimit="10" stroke-linecap="round" stroke-linejoin="round"/>
<path d="M60.3576 14.0377C74.4806 6.32956 88.9764 5.73087 97.039 13.8132C108.158 24.9744 102.79 48.4623 85.0569 66.2733C67.3233 84.0843 43.9128 89.4618 32.7933 78.2898C21.6739 67.1285 27.0419 43.6407 44.7755 25.8404C48.4287 22.1734 52.3163 19.0303 56.2997 16.4538" stroke="#FF5653" stroke-width="2" stroke-miterlimit="10" stroke-linecap="round" stroke-linejoin="round"/>
<path d="M73.8203 75.4673C64.4582 79.3695 61.7103 72.9977 67.025 64.5947" stroke="#FF5653" stroke-width="2" stroke-miterlimit="10" stroke-linecap="round" stroke-linejoin="round"/>
<path d="M127.298 139.709C127.298 139.709 140.303 139.644 152.849 134.128C152.849 134.128 150.953 144.103 125.509 147.673" stroke="#FF5653" stroke-width="2" stroke-miterlimit="10" stroke-linecap="round" stroke-linejoin="round"/>
<path d="M99.6804 150.443C100.011 150.443 101.811 153.426 107.647 153.65" stroke="#FF5653" stroke-width="2" stroke-miterlimit="10" stroke-linecap="round" stroke-linejoin="round"/>
<path d="M46.1815 84.0308C46.1815 84.0308 62.0405 85.3992 80.541 78.0546C88.1669 75.0184 94.2805 69.0101 97.4651 61.4196C100.863 53.3159 104.175 41.4811 102.791 27.8823" stroke="#FF5653" stroke-width="2" stroke-miterlimit="10" stroke-linecap="round" stroke-linejoin="round"/>
<path d="M95.3242 53.2303C95.3242 53.2303 98.2532 43.2664 91.6284 44.87" stroke="#FF5653" stroke-width="2" stroke-miterlimit="10" stroke-linecap="round" stroke-linejoin="round"/>
</svg>
