<?xml version="1.0" encoding="utf-8"?>
<!-- Generator: Adobe Illustrator 24.3.0, SVG Export Plug-In . SVG Version: 6.00 Build 0)  -->
<svg version="1.1" id="Layer_1" xmlns="http://www.w3.org/2000/svg" xmlns:xlink="http://www.w3.org/1999/xlink" x="0px" y="0px"
	 viewBox="0 0 100 100" style="enable-background:new 0 0 100 100;" xml:space="preserve">
<style type="text/css">
	.st0{fill:#ED1C24;}
</style>
<g>
	<path class="st0" d="M60.53,0H39.47C19.53,0,3.05,14.79,0.39,34h7.08c2.61-15.31,15.96-27,32-27h21.07C78.44,7,93,21.56,93,39.47
		v21.07C93,78.44,78.44,93,60.53,93H39.47c-16.04,0-29.39-11.69-32-27H0.39c2.66,19.21,19.14,34,39.08,34h21.07
		C82.33,100,100,82.33,100,60.53V39.47C100,17.67,82.33,0,60.53,0z"/>
</g>
<rect x="50" y="40" class="st0" width="29" height="19"/>
<polygon class="st0" points="49.5,81.32 17.68,49.5 49.5,17.68 55,49 "/>
</svg>
