<svg id="Layer_1" height="512" viewBox="0 0 128 128" width="512" xmlns="http://www.w3.org/2000/svg" data-name="Layer 1"><path d="m12 27.751h104v72.497h-104z" fill="#d60a2e"/><path d="m86.69 58.728a1.75 1.75 0 0 0 -1.661-1.2h-14.793l-4.572-14.069a1.75 1.75 0 0 0 -3.328 0l-4.572 14.069h-14.793a1.75 1.75 0 0 0 -1.045 3.154l11.929 8.878-4.516 13.9a1.75 1.75 0 0 0 2.661 1.975l12-8.372 12 8.372a1.75 1.75 0 0 0 2.666-1.976l-4.516-13.9 11.929-8.878a1.751 1.751 0 0 0 .611-1.953zm-22.69-9.065 2.556 7.865h-5.112zm0 23.084-6.04-4.495 2.347-7.224h7.386l2.347 7.224zm-15.747-11.719h8.374l-1.627 5.019zm8.565 10.737 4.189 3.118-6.728 4.7zm16.9 7.813-6.728-4.7 4.189-3.118zm-.718-13.531-1.631-5.019h8.374z" fill="#6fa44a"/></svg>