<?xml version="1.0" encoding="utf-8"?>
<!-- Generator: Adobe Illustrator 24.3.0, SVG Export Plug-In . SVG Version: 6.00 Build 0)  -->
<svg version="1.1" xmlns="http://www.w3.org/2000/svg" xmlns:xlink="http://www.w3.org/1999/xlink" x="0px" y="0px"
	 viewBox="0 0 547.15 118.69" style="enable-background:new 0 0 547.15 118.69;" xml:space="preserve">
<style type="text/css">
	.st0{fill:#FFFFFF;}
</style>
<g id="BG_1_">
</g>
<g id="graphics">
	<g>
		<path class="st0" d="M24.42,17.14c-0.68,1.14,0.24,2.24,1.29,2.22c0.77-0.02,1.56,0.09,2.35,0.33c0.79,0.24,1.5,0.6,2.13,1.04
			c0.87,0.61,2.24,0.21,2.31-1.12c0.13-2.4-0.98-4.5-2.87-5.07C27.75,13.95,25.65,15.08,24.42,17.14z"/>
	</g>
	<g>
		<path class="st0" d="M113.94,17.14c0.68,1.14-0.24,2.24-1.29,2.22c-0.77-0.02-1.56,0.09-2.35,0.33c-0.79,0.24-1.5,0.6-2.13,1.04
			c-0.87,0.61-2.24,0.21-2.31-1.12c-0.13-2.4,0.98-4.5,2.87-5.07C110.62,13.95,112.71,15.08,113.94,17.14z"/>
	</g>
	<g>
		<path class="st0" d="M121.1,95.89c-12.41-21.52-10.59-46.59-9.61-52.79c1.3,0.13,3.05,0.25,4.97,0.25c3.54,0,7.35-0.43,10.37-2.25
			c0.01,0,0.01-0.01,0.02-0.01c5.01-2.75,11.7-9.21,11.51-24.04c-0.02-1.43-1.19-2.58-2.61-2.58c-0.01,0-0.02,0-0.03,0
			c-0.03,0-3.09,0.03-6.39-0.32c-5.37-0.58-6.62-1.63-6.77-1.78c-5.1-11.44-14.57-12.02-19.13-12.29
			C97.97-0.27,92.75,0.6,87.44,3.36c-11.98,6.22-16.19,18-18.26,22.99c-2.07-5-6.28-16.77-18.26-22.99
			C45.61,0.6,40.39-0.27,34.93,0.07c-4.55,0.28-14.02,0.85-19.13,12.29c-0.16,0.15-1.4,1.21-6.77,1.78
			c-3.3,0.35-6.36,0.32-6.39,0.32c-0.01,0-0.02,0-0.03,0c-1.43,0-2.59,1.15-2.61,2.58C-0.19,31.88,6.5,38.34,11.51,41.09
			c0.01,0,0.01,0.01,0.02,0.01c3.02,1.82,6.83,2.25,10.37,2.25c1.92,0,3.67-0.12,4.97-0.25c0.98,6.2,2.81,31.27-9.61,52.79
			c-7.97,0.59-12.45,5.9-12.45,11.7c0,2.05,0.58,4.1,1.72,5.88c0,0,2.82,5.23,11.42,5.23c1.5,0,24.81,0,28.08,0
			c1.44,0,2.61-1.17,2.61-2.61c0-1.44-1.17-2.61-2.61-2.61c-3.25,0-26.08,0-28.94,0c-4.87,0-7.05-2.95-7.05-5.88
			c0-3.72,3.25-6.35,8.25-6.51c2.29,0.51,5.07,1.81,6.21,5.06c0.48,1.36,1.97,2.08,3.33,1.6c1.36-0.48,2.08-1.97,1.6-3.33
			c-1.18-3.36-3.55-5.89-6.82-7.38C34.25,75.79,33.37,51.3,32.1,42.92c-0.24-1.55-0.84-3.49-0.96-3.76
			c-0.47-1.06-1.62-1.71-2.81-1.51c-2.27,0.37-8.45,1.02-12.74-0.41c-0.12-0.04-0.24-0.09-0.36-0.13
			c-4.68-2.04-7.78-6.05-9.17-11.78c1.7-0.38,4.15-1.77,5.75-6.28c4.93-0.78,7.73-2.23,8.74-4.5c2.41-5.44,5.84-7.65,9.64-8.59
			c1.96-0.49,7.02-1.17,11.32,1.71c1.2,0.81,2.17,2.12,2.75,3.81c0.97,2.81,0.27,5.96-1.98,8.85c-5.83,7.5-7.3,11.33-6.76,16.3
			c0.34,3.14,2.05,5.71,4.81,7.24c3.8,2.11,8.78,2.18,12.57-0.17c4.09-2.52,6.46-7.02,7.61-14.59c0-0.01,0.01-0.03,0.01-0.04
			c-0.99-2.54-2.57-6.03-4.5-8.47c0.15,2.11,0.46,4.77-0.17,7.59c-1.25,5.66-2.04,8.49-5.22,10.8c-2.46,1.79-5.71,1.44-7.76,0.3
			c-1.27-0.71-2-1.79-2.15-3.23c-0.29-2.69,0.01-5.22,5.69-12.54c3.58-4.61,4.71-10.45,1.99-15.6c0.65,0.33,1.41,0.78,2.12,1.29v0
			c0,0,3.64,2.31,7.46,7.22c1.11,1.42,4.98,6.53,8.44,16.9c-7.9,19.62-19.46,50.46-19.46,62.99c0,12.29,9.95,22.29,22.22,22.37
			C81.45,118.6,91.4,108.6,91.4,96.32c0-11.75-10.17-39.61-17.95-59.22c-0.02,2.05-2.54,7.87-2.54,7.87l0,0
			c6.34,16.36,15.27,41.09,15.27,51.35c0,9.4-7.61,17.06-16.99,17.15c-9.38-0.09-16.99-7.74-16.99-17.15
			c0-11,10.26-38.65,16.6-54.76l0,0l3.96-10.54l0,0.01c3.23-8.82,6.61-13.29,7.63-14.6c3.81-4.91,7.46-7.22,7.46-7.22v0
			c0.71-0.51,1.47-0.95,2.12-1.29c-2.73,5.15-1.59,11,1.99,15.6c5.68,7.31,5.98,9.84,5.69,12.54c-0.16,1.44-0.88,2.53-2.15,3.23
			c-2.05,1.14-5.3,1.49-7.76-0.3c-3.18-2.31-3.97-5.15-5.22-10.8c-0.62-2.82-0.32-5.48-0.17-7.59c-1.94,2.43-3.51,5.92-4.5,8.47
			c0,0.01,0.01,0.03,0.01,0.04c1.15,7.57,3.52,12.07,7.61,14.59c3.8,2.34,8.77,2.27,12.57,0.17c2.77-1.53,4.48-4.11,4.81-7.24
			c0.54-4.98-0.93-8.8-6.76-16.3c-2.25-2.89-2.95-6.04-1.98-8.85c0.58-1.68,1.55-3,2.75-3.81c4.3-2.88,9.36-2.19,11.32-1.71
			c3.79,0.95,7.23,3.16,9.64,8.59c1.01,2.28,3.81,3.72,8.74,4.5c1.6,4.51,4.06,5.9,5.75,6.28c-1.39,5.72-4.49,9.74-9.17,11.78
			c-0.12,0.04-0.24,0.09-0.36,0.13c-4.28,1.44-10.46,0.79-12.74,0.41c-1.19-0.2-2.33,0.45-2.81,1.51c-0.12,0.27-0.73,2.21-0.96,3.76
			c-1.27,8.38-2.15,32.87,9.49,54.11c-3.27,1.49-5.64,4.02-6.82,7.38c-0.48,1.36,0.24,2.85,1.6,3.33c1.36,0.48,2.85-0.24,3.33-1.6
			c1.14-3.25,3.92-4.55,6.21-5.06c5,0.16,8.25,2.79,8.25,6.51c0,2.92-2.18,5.88-7.05,5.88c-2.86,0-25.69,0-28.94,0
			c-1.44,0-2.61,1.17-2.61,2.61c0,1.44,1.17,2.61,2.61,2.61c3.27,0,26.58,0,28.08,0c8.6,0,11.42-5.23,11.42-5.23
			c1.14-1.78,1.72-3.83,1.72-5.88C133.55,101.79,129.06,96.48,121.1,95.89z"/>
	</g>
	<g>
		<path class="st0" d="M163.46,99.72c-3.57,0-6.09-0.7-7.56-2.11c-1.47-1.41-2.21-3.49-2.21-6.25c0-0.81,0.05-2.11,0.14-3.9
			c0.09-1.78,0.23-3.9,0.42-6.34c0.19-2.44,0.39-5.1,0.61-7.99c0.22-2.88,0.45-5.82,0.7-8.83c0.31-3.69,0.58-6.87,0.8-9.54
			c0.22-2.66,0.39-4.95,0.52-6.86c0.12-1.91,0.24-3.51,0.33-4.79c0.09-1.28,0.16-2.41,0.19-3.38c0.03-0.97,0.06-1.86,0.09-2.68
			c0.03-0.81,0.05-1.69,0.05-2.63c0-0.5,0.16-0.86,0.47-1.08c0.31-0.22,0.63-0.33,0.94-0.33c1.63,0,3.41-0.05,5.36-0.14
			c1.94-0.09,3.88-0.2,5.82-0.33c1.94-0.12,3.82-0.23,5.64-0.33c1.82-0.09,3.41-0.14,4.79-0.14c4.01,0,7.45,0.49,10.33,1.46
			c2.88,0.97,5.21,2.38,7,4.23c1.79,1.85,3.1,4.09,3.95,6.72c0.85,2.63,1.27,5.64,1.27,9.02c0,3.7-0.49,7.25-1.46,10.66
			c-0.97,3.41-2.49,6.44-4.56,9.07c-2.07,2.63-4.73,4.73-7.99,6.29c-3.26,1.57-7.14,2.35-11.65,2.35c-2.69,0-4.98-0.28-6.86-0.85
			l-1.32,17.29c-0.06,0.5-0.19,0.86-0.38,1.08c-0.19,0.22-0.56,0.33-1.13,0.33H163.46z M178.68,46.18c-0.81,0-1.72,0.05-2.72,0.14
			c-1,0.09-2.07,0.2-3.19,0.33c-0.13,2.63-0.28,5.82-0.47,9.58c-0.19,3.76-0.44,7.7-0.75,11.84c0.94,0.25,1.86,0.42,2.77,0.52
			c0.91,0.09,1.74,0.14,2.49,0.14c2.19,0,3.96-0.52,5.31-1.55c1.35-1.03,2.4-2.3,3.15-3.8c0.75-1.5,1.25-3.07,1.5-4.7
			c0.25-1.63,0.38-3.04,0.38-4.23c0-2.69-0.61-4.74-1.83-6.15C184.08,46.88,181.88,46.18,178.68,46.18z"/>
		<path class="st0" d="M218.7,99.72c-3.51,0-6.01-0.69-7.52-2.07c-1.5-1.38-2.25-3.35-2.25-5.92c0-1.25,0.09-3.4,0.28-6.44
			c0.19-3.04,0.44-6.5,0.75-10.38c0.31-3.88,0.63-7.99,0.94-12.31s0.63-8.39,0.94-12.21c0.31-3.82,0.56-7.17,0.75-10.05
			c0.19-2.88,0.28-4.85,0.28-5.92c0-0.94,0.5-1.41,1.5-1.41h5.17c3.82,0,6.39,0.81,7.7,2.44c1.32,1.63,1.97,4.04,1.97,7.23
			c0,0.31-0.05,1.32-0.14,3.01c-0.09,1.69-0.24,3.82-0.42,6.39c-0.19,2.57-0.39,5.43-0.61,8.6c-0.22,3.16-0.44,6.4-0.66,9.72
			c-0.22,3.32-0.44,6.56-0.66,9.72c-0.22,3.16-0.42,6.03-0.61,8.6c-0.19,2.57-0.34,4.71-0.47,6.44c-0.13,1.72-0.22,2.77-0.28,3.15
			c-0.06,0.5-0.19,0.86-0.38,1.08c-0.19,0.22-0.56,0.33-1.13,0.33H218.7z"/>
		<path class="st0" d="M289.82,93.62c0,0.5-0.3,1.14-0.89,1.93c-0.6,0.78-1.41,1.55-2.44,2.3s-2.22,1.41-3.57,1.97
			c-1.35,0.56-2.77,0.85-4.27,0.85c-2.32,0-4.35-0.74-6.11-2.21c-1.75-1.47-3.33-3.49-4.74-6.06c-1.41-2.57-2.71-5.62-3.9-9.16
			c-1.19-3.54-2.41-7.37-3.66-11.51l-3.57,2.35l-1.79,24.24c-0.06,0.5-0.19,0.86-0.38,1.08c-0.19,0.22-0.56,0.33-1.13,0.33h-5.17
			c-3.57,0-6.09-0.7-7.56-2.11s-2.21-3.49-2.21-6.25c0-0.88,0.05-2.21,0.14-3.99c0.09-1.78,0.24-3.88,0.42-6.29
			c0.19-2.41,0.39-5.06,0.61-7.94c0.22-2.88,0.45-5.82,0.71-8.83c0.44-6.01,0.8-10.77,1.08-14.28c0.28-3.51,0.48-6.28,0.61-8.31
			c0.12-2.03,0.22-3.54,0.28-4.51c0.06-0.97,0.09-1.89,0.09-2.77c0-0.94,0.5-1.41,1.5-1.41h5.17c2,0,3.62,0.2,4.84,0.61
			c1.22,0.41,2.18,0.99,2.87,1.74c0.69,0.75,1.16,1.68,1.41,2.77c0.25,1.1,0.38,2.36,0.38,3.8c0,1.44-0.08,3.77-0.23,7
			c-0.16,3.23-0.39,6.84-0.71,10.85c2.13-2.63,4.68-5.89,7.66-9.77c2.97-3.88,6.59-8.67,10.85-14.37c0.19-0.25,0.45-0.58,0.8-0.99
			c0.34-0.41,0.72-0.8,1.13-1.17c0.41-0.38,0.85-0.7,1.32-0.99c0.47-0.28,0.92-0.42,1.36-0.42c0.81,0,1.75,0.42,2.82,1.27
			c1.06,0.85,2.07,1.88,3.01,3.1s1.74,2.47,2.4,3.76c0.66,1.28,0.99,2.36,0.99,3.24c0,1.82-1.63,4.53-4.88,8.13
			c-3.26,3.6-7.92,7.75-14,12.45c1.06,1.82,2.29,3.77,3.66,5.87c1.38,2.1,2.75,4.23,4.13,6.39c1.38,2.16,2.72,4.26,4.04,6.29
			c1.32,2.04,2.49,3.85,3.52,5.45c1.03,1.6,1.86,2.9,2.49,3.9C289.5,92.93,289.82,93.49,289.82,93.62z"/>
		<path class="st0" d="M328.43,31.99c4.57,0,8.49,0.64,11.74,1.93c3.26,1.28,5.92,3.16,7.99,5.64c2.07,2.48,3.57,5.48,4.51,9.02
			c0.94,3.54,1.41,7.56,1.41,12.07c0,2.51-0.17,5.23-0.52,8.17c-0.35,2.94-0.97,5.9-1.88,8.88c-0.91,2.98-2.15,5.84-3.71,8.6
			c-1.57,2.76-3.59,5.2-6.06,7.33c-2.47,2.13-5.43,3.84-8.88,5.12c-3.44,1.28-7.51,1.93-12.21,1.93c-5.2,0-9.5-0.78-12.92-2.35
			c-3.42-1.56-6.14-3.68-8.17-6.34c-2.04-2.66-3.48-5.81-4.32-9.44c-0.84-3.63-1.27-7.52-1.27-11.65c0-4.89,0.56-9.66,1.69-14.33
			c1.13-4.67,3.02-8.81,5.68-12.45c2.66-3.63,6.18-6.56,10.57-8.78C316.46,33.1,321.91,31.99,328.43,31.99z M326.45,46.55
			c-2.19,0-4.09,0.39-5.68,1.17c-1.6,0.78-2.95,1.83-4.04,3.15c-1.1,1.31-1.97,2.79-2.63,4.42c-0.66,1.63-1.17,3.3-1.55,5.03
			c-0.38,1.72-0.63,3.38-0.75,4.98c-0.13,1.6-0.19,3.02-0.19,4.27c0,5.7,0.95,9.86,2.87,12.49c1.91,2.63,4.62,3.95,8.13,3.95
			c2.88,0,5.23-0.92,7.05-2.77c1.82-1.85,3.24-4.07,4.27-6.67c1.03-2.6,1.74-5.29,2.11-8.08c0.38-2.79,0.56-5.15,0.56-7.09
			c0-4.57-0.78-8.19-2.35-10.85C332.68,47.88,330.08,46.55,326.45,46.55z"/>
		<path class="st0" d="M365.81,34.43c0.06-0.5,0.27-0.86,0.61-1.08c0.34-0.22,0.67-0.33,0.99-0.33c4.26,0,8.25-0.14,11.98-0.42
			c3.72-0.28,6.65-0.42,8.78-0.42c5.32,0,9.79,0.53,13.39,1.6c3.6,1.07,6.51,2.72,8.74,4.98c2.22,2.25,3.8,5.17,4.74,8.74
			s1.41,7.86,1.41,12.87c0,5.07-0.52,10.04-1.55,14.89c-1.03,4.85-2.83,9.16-5.4,12.92c-2.57,3.76-6.03,6.78-10.38,9.07
			c-4.35,2.29-9.85,3.43-16.49,3.43c-3.07,0-5.87-0.06-8.41-0.19c-2.54-0.13-4.71-0.5-6.53-1.13c-1.82-0.62-3.23-1.56-4.23-2.82
			c-1-1.25-1.5-2.97-1.5-5.17c0-0.81,0.05-2.03,0.14-3.66c0.09-1.63,0.22-3.57,0.38-5.82s0.34-4.74,0.56-7.47
			c0.22-2.72,0.45-5.59,0.7-8.6c0.5-6.2,0.89-11.15,1.17-14.84c0.28-3.69,0.47-6.59,0.56-8.69c0.09-2.1,0.16-3.68,0.19-4.74
			C365.71,36.47,365.75,35.44,365.81,34.43z M383.29,85.82c3.51,0,6.31-0.75,8.41-2.25c2.1-1.5,3.71-3.41,4.84-5.73
			c1.13-2.32,1.88-4.85,2.25-7.61c0.38-2.76,0.56-5.35,0.56-7.8c0-2.63-0.17-4.93-0.52-6.9c-0.35-1.97-0.94-3.62-1.79-4.93
			c-0.85-1.32-2.02-2.3-3.52-2.96c-1.5-0.66-3.38-0.99-5.63-0.99c-0.69,0-1.57,0.03-2.63,0.09c-1.07,0.06-2.35,0.16-3.85,0.28
			c-0.13,2.32-0.28,5.06-0.47,8.22c-0.19,3.16-0.39,6.48-0.61,9.96c-0.22,3.48-0.46,6.98-0.71,10.52c-0.25,3.54-0.5,6.81-0.75,9.82
			c0.94,0.13,1.79,0.2,2.54,0.23C382.16,85.8,382.79,85.82,383.29,85.82z"/>
		<path class="st0" d="M457.78,31.99c4.57,0,8.49,0.64,11.74,1.93c3.25,1.28,5.92,3.16,7.98,5.64c2.07,2.48,3.57,5.48,4.51,9.02
			c0.94,3.54,1.41,7.56,1.41,12.07c0,2.51-0.17,5.23-0.52,8.17c-0.34,2.94-0.97,5.9-1.88,8.88c-0.91,2.98-2.15,5.84-3.71,8.6
			c-1.57,2.76-3.59,5.2-6.06,7.33c-2.47,2.13-5.43,3.84-8.88,5.12c-3.45,1.28-7.52,1.93-12.21,1.93c-5.2,0-9.5-0.78-12.92-2.35
			c-3.41-1.56-6.14-3.68-8.17-6.34c-2.04-2.66-3.48-5.81-4.32-9.44c-0.85-3.63-1.27-7.52-1.27-11.65c0-4.89,0.56-9.66,1.69-14.33
			c1.13-4.67,3.02-8.81,5.68-12.45c2.66-3.63,6.18-6.56,10.57-8.78C445.82,33.1,451.27,31.99,457.78,31.99z M455.81,46.55
			c-2.19,0-4.09,0.39-5.68,1.17c-1.6,0.78-2.94,1.83-4.04,3.15c-1.1,1.31-1.97,2.79-2.63,4.42c-0.66,1.63-1.17,3.3-1.55,5.03
			c-0.38,1.72-0.63,3.38-0.75,4.98c-0.13,1.6-0.19,3.02-0.19,4.27c0,5.7,0.95,9.86,2.87,12.49c1.91,2.63,4.62,3.95,8.13,3.95
			c2.88,0,5.23-0.92,7.05-2.77c1.82-1.85,3.24-4.07,4.27-6.67c1.03-2.6,1.74-5.29,2.11-8.08c0.38-2.79,0.56-5.15,0.56-7.09
			c0-4.57-0.78-8.19-2.35-10.85C462.04,47.88,459.44,46.55,455.81,46.55z"/>
		<path class="st0" d="M533.03,99.72c-3.26,0-5.59-0.67-7-2.02c-1.41-1.35-2.18-3.02-2.3-5.03c-0.69,2.13-2.15,3.99-4.37,5.59
			c-2.22,1.6-5.43,2.4-9.63,2.4c-2.44,0-4.82-0.49-7.14-1.46c-2.32-0.97-4.38-2.58-6.2-4.84c-1.82-2.25-3.27-5.26-4.37-9.02
			c-1.1-3.76-1.64-8.42-1.64-14c0-2.13,0.12-4.59,0.38-7.37c0.25-2.79,0.77-5.64,1.55-8.55c0.78-2.91,1.91-5.76,3.38-8.55
			c1.47-2.79,3.41-5.28,5.82-7.47c2.41-2.19,5.37-3.96,8.88-5.31c3.51-1.35,7.7-2.02,12.59-2.02c3.19,0,6.06,0.34,8.6,1.03
			c2.54,0.69,4.7,1.66,6.48,2.91c1.79,1.25,3.16,2.79,4.13,4.6c0.97,1.82,1.46,3.85,1.46,6.11c0,3.63-1.19,6.37-3.57,8.22
			c-2.38,1.85-5.73,2.77-10.05,2.77c-1.38,0-2.21-0.11-2.49-0.33c-0.28-0.22-0.46-0.67-0.52-1.36c-0.13-1.13-0.2-2.25-0.23-3.38
			c-0.03-1.13-0.19-2.16-0.47-3.1c-0.28-0.94-0.77-1.69-1.46-2.25c-0.69-0.56-1.79-0.85-3.29-0.85c-3.07,0-5.51,0.88-7.33,2.63
			c-1.82,1.75-3.19,3.88-4.13,6.39c-0.94,2.51-1.54,5.09-1.79,7.75c-0.25,2.66-0.38,4.9-0.38,6.72c0,3.01,0.19,5.53,0.56,7.56
			c0.38,2.04,0.92,3.7,1.64,4.98c0.72,1.28,1.58,2.19,2.58,2.72c1,0.53,2.16,0.8,3.48,0.8c2.38,0,4.38-0.5,6.01-1.5
			c1.63-1,2.6-2.82,2.91-5.45l0.56-5.26c0.19-1.82,0.44-3.3,0.75-4.46c0.31-1.16,1.06-1.74,2.25-1.74h5.17
			c1.57,0,2.83,0.17,3.8,0.52c0.97,0.35,1.72,0.91,2.25,1.69c0.53,0.78,0.89,1.8,1.08,3.05c0.19,1.25,0.28,2.79,0.28,4.6
			c0,1.25-0.05,2.91-0.14,4.98c-0.09,2.07-0.22,4.17-0.38,6.29c-0.16,2.13-0.33,4.09-0.52,5.87c-0.19,1.79-0.34,3.02-0.47,3.71
			c-0.13,0.56-0.28,0.94-0.47,1.13s-0.56,0.28-1.13,0.28H533.03z"/>
	</g>
</g>
</svg>
